<?xml version="1.0" standalone="no"?><!DOCTYPE svg PUBLIC "-//W3C//DTD SVG 1.1//EN" "http://www.w3.org/Graphics/SVG/1.1/DTD/svg11.dtd"><svg t="1608793949601" class="icon" viewBox="0 0 1024 1024" version="1.1" xmlns="http://www.w3.org/2000/svg" p-id="4136" xmlns:xlink="http://www.w3.org/1999/xlink" width="16" height="16"><defs><style type="text/css"></style></defs><path d="M96.513 141.037h807.129c17.14 0 31.044-11.857 31.044-28.996s-13.905-28.997-31.044-28.997H96.512c-17.149 0-31.043 11.858-31.043 28.998s13.893 28.995 31.044 28.995M96.513 389.387h807.129c17.14 0 31.044-11.86 31.044-28.998 0-17.139-13.905-28.997-31.044-28.997H96.512c-17.149 0-31.043 11.858-31.043 28.997s13.893 28.998 31.044 28.998M454.73 828.085H96.513c-17.15 0-31.044 11.841-31.044 28.998 0 17.139 13.893 29 31.044 29h401.131c-16.878-18.638-31.349-35.403-42.914-57.998M96.513 637.734h332.172c4.236-21.664 10.894-38.366 19.7-57.992H96.513c-17.15 0-31.044 11.835-31.044 28.995-0.001 17.14 13.893 28.997 31.044 28.997M672.302 746.577l-71.398-71.392-26.716 26.736 84.745 84.741c7.4 7.397 19.357 7.397 26.735 0l161.669-161.66-26.719-26.716-148.316 148.291z" p-id="4137" fill="#ffffff"></path><path d="M710.766 447.49c-136.832 0-247.767 110.936-247.767 247.764 0 136.817 110.935 247.751 247.767 247.751 136.824 0 247.761-110.935 247.761-247.75 0-136.826-110.937-247.764-247.761-247.764m0 457.409c-115.782 0-209.658-93.875-209.658-209.646 0-115.775 93.877-209.652 209.658-209.652 115.771 0 209.652 93.878 209.652 209.652 0 115.769-93.882 209.646-209.652 209.646" p-id="4138" fill="#ffffff"></path></svg>