<?xml version="1.0" standalone="no"?><!DOCTYPE svg PUBLIC "-//W3C//DTD SVG 1.1//EN" "http://www.w3.org/Graphics/SVG/1.1/DTD/svg11.dtd"><svg t="1609394171892" class="icon" viewBox="0 0 1024 1024" version="1.1" xmlns="http://www.w3.org/2000/svg" p-id="2491" width="16" height="16" xmlns:xlink="http://www.w3.org/1999/xlink"><defs><style type="text/css"></style></defs><path d="M875.9296 1023.488c-11.776 0-23.552-3.072-34.1504-9.3696l-323.2256-190.8736a12.3392 12.3392 0 0 0-13.056 0l-323.072 190.8736a66.56 66.56 0 0 1-67.3792 0.5632 75.9296 75.9296 0 0 1-37.2224-66.304V76.3392C77.824 34.816 109.4656 1.024 148.2752 1.024h727.6544c38.8096 0 70.4512 33.6384 70.4512 75.264v872.0384c0 27.8016-14.2848 53.248-37.2224 66.304a67.3792 67.3792 0 0 1-33.28 8.8576z m-6.5024-56.1152a12.1344 12.1344 0 0 0 12.8 0.1024 21.9136 21.9136 0 0 0 9.8816-19.2512V76.1856c0-11.3152-7.3728-20.8896-16.1792-20.8896H148.2752c-8.8064 0-16.1792 9.5744-16.1792 20.8896V948.224c0 10.0352 5.12 16.4864 9.8304 19.2512a11.8272 11.8272 0 0 0 12.8-0.1024l323.2256-190.9248c21.504-12.6464 46.9504-12.6464 68.2496 0l323.2256 190.9248z" p-id="2492" fill="#ffffff"></path><path d="M512.1024 430.7456a119.0912 119.0912 0 0 1-119.296-118.528 119.0912 119.0912 0 0 1 119.296-118.528c65.7408 0 119.296 53.248 119.296 118.528a119.0912 119.0912 0 0 1-119.296 118.528z m0-182.784c-35.7376 0-65.024 28.8256-65.024 64.256s29.1328 64.256 65.024 64.256c35.84 0 65.024-28.8256 65.024-64.256s-29.184-64.256-65.024-64.256zM676.9664 623.5136h-329.728a27.2384 27.2384 0 0 1 0-54.3744h329.5744a27.2384 27.2384 0 0 1 0.1536 54.3744z" p-id="2493" fill="#ffffff"></path></svg>