<?xml version="1.0" encoding="utf-8"?>
<!-- Generator: Adobe Illustrator 15.0.0, SVG Export Plug-In  -->
<!DOCTYPE svg PUBLIC "-//W3C//DTD SVG 1.1//EN" "http://www.w3.org/Graphics/SVG/1.1/DTD/svg11.dtd" [
	<!ENTITY ns_flows "http://ns.adobe.com/Flows/1.0/">
]>
<svg version="1.1"
	 xmlns="http://www.w3.org/2000/svg" xmlns:xlink="http://www.w3.org/1999/xlink" xmlns:a="http://ns.adobe.com/AdobeSVGViewerExtensions/3.0/"
	 x="0px" y="0px" width="222px" height="222px" viewBox="-4.092 0 222 222" enable-background="new -4.092 0 222 222"
	 xml:space="preserve">
<defs>
</defs>
<g fill-rule="evenodd"><g fill-rule="nonzero"><path d="M7.02 3.635l12.518 12.518a1.863 1.863 0 010 2.635l-1.317 1.318a1.863 1.863 0 01-2.635 0L3.068 7.588A2.795 2.795 0 117.02 3.635zm2.09 14.428a.932.932 0 110 1.864.932.932 0 010-1.864zm-.043-9.747L7.75 9.635l9.154 9.153 1.318-1.317-9.154-9.155zM3.52 12.473c.514 0 .931.417.931.931v.932h.932a.932.932 0 110 1.864h-.932v.931a.932.932 0 01-1.863 0l-.001-.931h-.93a.932.932 0 010-1.864h.93v-.932c0-.514.418-.931.933-.931zm15.374-3.727a1.398 1.398 0 110 2.795 1.398 1.398 0 010-2.795zM4.385 4.953a.932.932 0 000 1.317l2.046 2.047L7.75 7 5.703 4.953a.932.932 0 00-1.318 0zM14.701.36a.932.932 0 01.931.932v.931h.932a.932.932 0 010 1.864h-.933l.001.932a.932.932 0 11-1.863 0l-.001-.932h-.93a.932.932 0 110-1.864h.93v-.931a.932.932 0 01.933-.932z"></path></g></g>
</svg>
